# xmcd CD database file
#
# Track frame offsets:
#	150
#	19420
#	48867
#	97202
#	131962
#	161313
#	186178
#	230308
#
# Disc length: 3638 seconds
#
# Revision: 0
# Processed by: cddbd v1.5.1PL2 Copyright (c) Steve Scherf et al.
# Submitted via: CDex 1.50
#
DISCID=670e3408
DTITLE=Ryo Fukui - Scenery +2
DYEAR=1976
DGENRE=Jazz
TTITLE0=It Could Happen To You
TTITLE1=I Want To Talk About You
TTITLE2=Early Summer
TTITLE3=Willow Weep For Me
TTITLE4=Autumn Leaves
TTITLE5=Scenery
TTITLE6=Mellow Dream
TTITLE7=Horizon
EXTD=YEAR: 1976
EXTT0=
EXTT1=
EXTT2=
EXTT3=
EXTT4=
EXTT5=
EXTT6=
EXTT7=
PLAYORDER=
